<svg width="16" height="14" viewBox="0 0 16 14" fill="none" xmlns="http://www.w3.org/2000/svg">
<path d="M4.79766 3.08016V3.74682C5.03477 3.74682 5.25403 3.62088 5.37351 3.41607L4.79766 3.08016ZM5.91766 1.16016V0.49349C5.68054 0.49349 5.46128 0.61943 5.3418 0.824242L5.91766 1.16016ZM10.0777 1.16016L10.6535 0.824242C10.534 0.61943 10.3148 0.49349 10.0777 0.49349V1.16016ZM11.1977 3.08016L10.6218 3.41607C10.7413 3.62088 10.9605 3.74682 11.1977 3.74682V3.08016ZM2.26432 11.2402V4.68015H0.93099V11.2402H2.26432ZM3.19766 3.74682H4.79766V2.41349H3.19766V3.74682ZM5.37351 3.41607L6.49351 1.49607L5.3418 0.824242L4.2218 2.74424L5.37351 3.41607ZM5.91766 1.82682H10.0777V0.49349H5.91766V1.82682ZM9.5018 1.49607L10.6218 3.41607L11.7735 2.74424L10.6535 0.824242L9.5018 1.49607ZM11.1977 3.74682H12.7977V2.41349H11.1977V3.74682ZM13.731 4.68016V11.2402H15.0643V4.68016H13.731ZM13.731 11.2402C13.731 11.7556 13.3131 12.1735 12.7977 12.1735V13.5068C14.0495 13.5068 15.0643 12.492 15.0643 11.2402H13.731ZM12.7977 3.74682C13.3131 3.74682 13.731 4.16469 13.731 4.68016H15.0643C15.0643 3.42831 14.0495 2.41349 12.7977 2.41349V3.74682ZM2.26432 4.68015C2.26432 4.16469 2.68219 3.74682 3.19766 3.74682V2.41349C1.94581 2.41349 0.93099 3.42831 0.93099 4.68015H2.26432ZM3.19766 12.1735C2.68219 12.1735 2.26432 11.7556 2.26432 11.2402H0.93099C0.93099 12.492 1.94581 13.5068 3.19766 13.5068V12.1735ZM9.73099 7.56016C9.73099 8.51745 8.95495 9.29349 7.99766 9.29349V10.6268C9.69133 10.6268 11.0643 9.25383 11.0643 7.56016H9.73099ZM7.99766 9.29349C7.04036 9.29349 6.26432 8.51745 6.26432 7.56016H4.93099C4.93099 9.25383 6.30398 10.6268 7.99766 10.6268V9.29349ZM6.26432 7.56016C6.26432 6.60286 7.04036 5.82682 7.99766 5.82682V4.49349C6.30398 4.49349 4.93099 5.86648 4.93099 7.56016H6.26432ZM7.99766 5.82682C8.95495 5.82682 9.73099 6.60286 9.73099 7.56016H11.0643C11.0643 5.86648 9.69133 4.49349 7.99766 4.49349V5.82682ZM12.7977 12.1735H3.19766V13.5068H12.7977V12.1735Z" fill="white"/>
</svg>
