<svg width="16" height="15" viewBox="0 0 16 15" fill="none" xmlns="http://www.w3.org/2000/svg">
<path d="M1.59766 0.328451C1.22947 0.328451 0.93099 0.626927 0.93099 0.995117C0.93099 1.36331 1.22947 1.66178 1.59766 1.66178V0.328451ZM3.12601 0.995117L3.7695 0.82084C3.69079 0.530239 3.42709 0.328451 3.12601 0.328451V0.995117ZM5.6096 10.1653L4.96611 10.3395C5.05296 10.6602 5.36264 10.868 5.69229 10.8268L5.6096 10.1653ZM13.2514 9.21004L13.3341 9.87156C13.6172 9.83617 13.8464 9.62453 13.9042 9.34511L13.2514 9.21004ZM14.3977 3.66974L15.0505 3.80482C15.0911 3.60847 15.0412 3.40427 14.9146 3.2488C14.788 3.09332 14.5982 3.00308 14.3977 3.00308V3.66974ZM3.85039 3.66974L3.20691 3.84402L3.20691 3.84402L3.85039 3.66974ZM1.59766 1.66178H3.12601V0.328451H1.59766V1.66178ZM5.69229 10.8268L13.3341 9.87156L13.1687 8.54853L5.52691 9.50375L5.69229 10.8268ZM13.9042 9.34511L15.0505 3.80482L13.7448 3.53467L12.5985 9.07497L13.9042 9.34511ZM2.48253 1.16939L3.20691 3.84402L4.49388 3.49547L3.7695 0.82084L2.48253 1.16939ZM3.20691 3.84402L4.96611 10.3395L6.25308 9.99099L4.49388 3.49547L3.20691 3.84402ZM14.3977 3.00308H3.85039V4.33641H14.3977V3.00308ZM7.33099 12.6666C7.33099 12.8507 7.18175 13 6.99766 13V14.3333C7.91813 14.3333 8.66432 13.5871 8.66432 12.6666H7.33099ZM6.99766 13C6.81356 13 6.66432 12.8507 6.66432 12.6666H5.33099C5.33099 13.5871 6.07718 14.3333 6.99766 14.3333V13ZM6.66432 12.6666C6.66432 12.4825 6.81356 12.3333 6.99766 12.3333V11C6.07718 11 5.33099 11.7462 5.33099 12.6666H6.66432ZM6.99766 12.3333C7.18175 12.3333 7.33099 12.4825 7.33099 12.6666H8.66432C8.66432 11.7462 7.91813 11 6.99766 11V12.3333ZM12.6643 12.6666C12.6643 12.8507 12.5151 13 12.331 13V14.3333C13.2515 14.3333 13.9977 13.5871 13.9977 12.6666H12.6643ZM12.331 13C12.1469 13 11.9977 12.8507 11.9977 12.6666H10.6643C10.6643 13.5871 11.4105 14.3333 12.331 14.3333V13ZM11.9977 12.6666C11.9977 12.4825 12.1469 12.3333 12.331 12.3333V11C11.4105 11 10.6643 11.7462 10.6643 12.6666H11.9977ZM12.331 12.3333C12.5151 12.3333 12.6643 12.4825 12.6643 12.6666H13.9977C13.9977 11.7462 13.2515 11 12.331 11V12.3333Z" fill="white"/>
</svg>
