<svg width="24" height="24" viewBox="0 0 24 24" fill="none" xmlns="http://www.w3.org/2000/svg">
<path d="M5.53286 1.5C5.28842 1.50005 5.05064 1.57972 4.85551 1.72695C4.66037 1.87418 4.5185 2.08096 4.45136 2.316L1.66436 12.066C1.61651 12.2335 1.60822 12.4099 1.64015 12.5812C1.67207 12.7524 1.74335 12.914 1.84835 13.053C1.95336 13.192 2.08922 13.3048 2.24523 13.3824C2.40124 13.4599 2.57313 13.5002 2.74736 13.5H5.03936L3.02186 21.5685C2.98168 21.7295 2.99601 21.8992 3.0626 22.0512C3.12919 22.2031 3.24428 22.3287 3.38985 22.4083C3.53543 22.4878 3.70328 22.5169 3.86713 22.4909C4.03098 22.4648 4.18158 22.3852 4.29536 22.2645L7.93736 18.4095C7.51754 17.1771 7.39534 15.8629 7.58074 14.5743C7.76615 13.2857 8.25389 12.0592 9.00411 10.9952C9.75432 9.93115 10.7457 9.05978 11.8972 8.45231C13.0487 7.84484 14.3276 7.51851 15.6294 7.5H12.3324L14.0124 3.018C14.0758 2.84781 14.0971 2.6648 14.0744 2.48459C14.0518 2.30438 13.9858 2.13234 13.8822 1.98317C13.7786 1.834 13.6404 1.71214 13.4794 1.628C13.3184 1.54386 13.1395 1.49994 12.9579 1.5H5.53436H5.53286ZM15.7494 22.5C16.6358 22.5 17.5135 22.3254 18.3325 21.9862C19.1514 21.647 19.8955 21.1498 20.5223 20.523C21.1491 19.8962 21.6463 19.1521 21.9855 18.3331C22.3248 17.5142 22.4994 16.6364 22.4994 15.75C22.4994 14.8636 22.3248 13.9858 21.9855 13.1669C21.6463 12.3479 21.1491 11.6038 20.5223 10.977C19.8955 10.3502 19.1514 9.85303 18.3325 9.51381C17.5135 9.17459 16.6358 9 15.7494 9C13.9592 9 12.2423 9.71116 10.9764 10.977C9.71052 12.2429 8.99936 13.9598 8.99936 15.75C8.99936 17.5402 9.71052 19.2571 10.9764 20.523C12.2423 21.7888 13.9592 22.5 15.7494 22.5ZM19.2804 14.031L14.7804 18.531C14.6397 18.6716 14.449 18.7506 14.2501 18.7506C14.0512 18.7506 13.8605 18.6716 13.7199 18.531L12.2199 17.031C12.1501 16.9614 12.0948 16.8787 12.057 16.7877C12.0192 16.6966 11.9998 16.5991 11.9997 16.5005C11.9996 16.3015 12.0785 16.1106 12.2191 15.9697C12.3597 15.8289 12.5506 15.7497 12.7496 15.7496C12.9486 15.7494 13.1395 15.8284 13.2804 15.969L14.2494 16.9395L18.2184 12.969C18.3592 12.8282 18.5502 12.7491 18.7494 12.7491C18.9485 12.7491 19.1395 12.8282 19.2804 12.969C19.4212 13.1098 19.5003 13.3008 19.5003 13.5C19.5003 13.6992 19.4212 13.8902 19.2804 14.031Z" fill="#3F76BB"/>
</svg>
