<svg width="16" height="16" viewBox="0 0 16 16" fill="none" xmlns="http://www.w3.org/2000/svg">
<path d="M8.33203 1.33398H8.51383C10.688 1.33398 11.775 1.33398 12.53 1.86588C12.7463 2.01827 12.9383 2.199 13.1002 2.40258C13.6654 3.1131 13.6654 4.13622 13.6654 6.18247V7.87945C13.6654 9.85492 13.6654 10.8426 13.3528 11.6315C12.8502 12.8997 11.7873 13.9 10.4398 14.373C9.60163 14.6673 8.55216 14.6673 6.45324 14.6673C5.25386 14.6673 4.65418 14.6673 4.17522 14.4992C3.40522 14.2289 2.79786 13.6573 2.51067 12.9326C2.33203 12.4818 2.33203 11.9174 2.33203 10.7885V8.00065" stroke="white" stroke-linecap="round" stroke-linejoin="round"/>
<path d="M13.6667 8C13.6667 9.22727 12.6717 10.2222 11.4445 10.2222C11.0006 10.2222 10.4773 10.1445 10.0457 10.2601C9.66233 10.3628 9.3628 10.6623 9.26007 11.0457C9.14447 11.4773 9.2222 12.0006 9.2222 12.4445C9.2222 13.6717 8.22727 14.6667 7 14.6667" stroke="white" stroke-linecap="round" stroke-linejoin="round"/>
<path d="M3 5.00065C3.32769 5.33778 4.19985 6.66732 4.66667 6.66732M4.66667 6.66732C5.13349 6.66732 6.00565 5.33778 6.33333 5.00065M4.66667 6.66732V1.33398" stroke="white" stroke-linecap="round" stroke-linejoin="round"/>
</svg>
