<svg width="24" height="24" viewBox="0 0 24 24" fill="none" xmlns="http://www.w3.org/2000/svg">
<path fill-rule="evenodd" clip-rule="evenodd" d="M10.7007 7.546C11.1404 7.62892 11.5527 7.8198 11.9004 8.10149C12.2481 8.38317 12.5204 8.74684 12.6928 9.15981C12.8652 9.57278 12.9322 10.0221 12.888 10.4674C12.8437 10.9127 12.6895 11.34 12.4392 11.711L19.3562 17.08C19.5815 16.9633 19.8396 16.9262 20.0886 16.9746C20.3377 17.0231 20.563 17.1543 20.7281 17.347C20.8931 17.5397 20.9882 17.7825 20.9979 18.036C21.0075 18.2896 20.9312 18.5389 20.7813 18.7436C20.6314 18.9483 20.4167 19.0963 20.1721 19.1636C19.9275 19.2309 19.6673 19.2135 19.4338 19.1143C19.2003 19.0151 19.0071 18.8399 18.8858 18.6171C18.7644 18.3943 18.7219 18.137 18.7652 17.887L11.7302 12.426C11.3989 12.653 11.0212 12.8033 10.6245 12.8658C10.2278 12.9284 9.8221 12.9017 9.43704 12.7876C9.05197 12.6735 8.69721 12.475 8.39858 12.2065C8.09996 11.9379 7.86499 11.6062 7.71081 11.2354C7.55663 10.8645 7.48712 10.464 7.50733 10.0629C7.52754 9.6618 7.63697 9.27027 7.82765 8.91682C8.01833 8.56338 8.28546 8.25692 8.60957 8.01978C8.93368 7.78263 9.3066 7.62078 9.70118 7.546L9.70018 3H10.7002V7.546H10.7007ZM11.1002 10.2C11.1002 10.3182 11.0769 10.4352 11.0317 10.5444C10.9864 10.6536 10.9201 10.7528 10.8366 10.8364C10.753 10.92 10.6538 10.9863 10.5446 11.0315C10.4354 11.0767 10.3184 11.1 10.2002 11.1C10.082 11.1 9.96496 11.0767 9.85577 11.0315C9.74657 10.9863 9.64736 10.92 9.56378 10.8364C9.48021 10.7528 9.41392 10.6536 9.36869 10.5444C9.32346 10.4352 9.30018 10.3182 9.30018 10.2C9.30018 9.96131 9.395 9.73239 9.56378 9.5636C9.73257 9.39482 9.96149 9.3 10.2002 9.3C10.4389 9.3 10.6678 9.39482 10.8366 9.5636C11.0054 9.73239 11.1002 9.96131 11.1002 10.2Z" fill="#3F76BB"/>
<path d="M13.8146 10.1917C13.8148 9.50011 13.6157 8.82308 13.2413 8.24159C12.8668 7.6601 12.3328 7.19876 11.7031 6.91273V3.05273C13.8476 3.24123 14.9616 3.91673 15.9591 4.84123C16.0091 4.88823 16.0591 4.93373 16.1071 4.97773V4.97823C16.5321 5.36823 16.8701 5.67873 17.0446 6.14373L19.1616 11.7797C19.2184 11.931 19.2376 12.0938 19.2176 12.2541C19.1977 12.4144 19.1392 12.5675 19.0471 12.7003C18.9551 12.8331 18.8322 12.9415 18.689 13.0164C18.5459 13.0913 18.3867 13.1303 18.2251 13.1302H17.4096V14.2997L13.6221 11.3582C13.7503 10.9829 13.8156 10.5889 13.8151 10.1922L13.8146 10.1917Z" fill="#3F76BB"/>
<path d="M8.7015 6.92311V3.12061C4.2065 3.79711 3 7.15061 3 8.98761C3 11.8711 4.8415 14.1076 5.705 15.0041V21.0001H14.261V17.7441H16.4075C16.5585 17.7441 16.7025 17.7101 16.8305 17.6501L11.538 13.5401C10.6633 13.9011 9.68155 13.9031 8.80531 13.5458C7.92907 13.1884 7.22876 12.5005 6.85592 11.6307C6.48308 10.7609 6.4677 9.77936 6.81309 8.89834C7.15849 8.01733 7.83689 7.30773 8.7015 6.92311Z" fill="#3F76BB"/>
</svg>
