<svg width="42" height="42" viewBox="0 0 42 42" fill="none" xmlns="http://www.w3.org/2000/svg">
<path d="M41.1712 21.1575L27 14.0737V6C27 4.4087 26.3679 2.88258 25.2426 1.75736C24.1174 0.632141 22.5913 0 21 0C19.4087 0 17.8826 0.632141 16.7574 1.75736C15.6321 2.88258 15 4.4087 15 6V14.0737L0.82875 21.1575C0.579541 21.2822 0.369998 21.4739 0.223615 21.711C0.0772334 21.9481 -0.000199126 22.2213 3.84567e-07 22.5V28.5C0.000123273 28.7219 0.0494662 28.941 0.144473 29.1415C0.239479 29.342 0.377783 29.5189 0.549417 29.6595C0.721051 29.8001 0.921741 29.9009 1.13702 29.9546C1.3523 30.0083 1.57681 30.0135 1.79438 29.97L15 27.33V30.8794L12.4387 33.4387C12.2995 33.5782 12.1891 33.7436 12.1138 33.9257C12.0385 34.1078 11.9998 34.303 12 34.5V40.5C11.9996 40.7458 12.0596 40.988 12.1747 41.2052C12.2899 41.4224 12.4567 41.608 12.6604 41.7456C12.8641 41.8832 13.0985 41.9686 13.343 41.9944C13.5875 42.0201 13.8346 41.9853 14.0625 41.8931L21 39.1162L27.9375 41.8931C28.1654 41.9853 28.4125 42.0201 28.657 41.9944C28.9015 41.9686 29.1359 41.8832 29.3396 41.7456C29.5433 41.608 29.7101 41.4224 29.8253 41.2052C29.9404 40.988 30.0004 40.7458 30 40.5V34.5C30.0002 34.303 29.9615 34.1078 29.8862 33.9257C29.8109 33.7436 29.7005 33.5782 29.5613 33.4387L27 30.8794V27.33L40.2056 29.97C40.4232 30.0135 40.6477 30.0083 40.863 29.9546C41.0783 29.9009 41.2789 29.8001 41.4506 29.6595C41.6222 29.5189 41.7605 29.342 41.8555 29.1415C41.9505 28.941 41.9999 28.7219 42 28.5V22.5C42.0002 22.2213 41.9228 21.9481 41.7764 21.711C41.63 21.4739 41.4205 21.2822 41.1712 21.1575ZM39 26.67L25.7944 24.03C25.5768 23.9865 25.3523 23.9917 25.137 24.0454C24.9217 24.0991 24.7211 24.1999 24.5494 24.3405C24.3778 24.4811 24.2395 24.658 24.1445 24.8585C24.0495 25.059 24.0001 25.2781 24 25.5V31.5C23.9998 31.697 24.0385 31.8922 24.1138 32.0743C24.1891 32.2564 24.2995 32.4218 24.4387 32.5612L27 35.1206V38.2837L21.5625 36.1069C21.205 35.9639 20.8062 35.9639 20.4487 36.1069L15 38.2837V35.1206L17.5613 32.5612C17.7005 32.4218 17.8109 32.2564 17.8862 32.0743C17.9615 31.8922 18.0002 31.697 18 31.5V25.5C17.9999 25.2781 17.9505 25.059 17.8555 24.8585C17.7605 24.658 17.6222 24.4811 17.4506 24.3405C17.2789 24.1999 17.0783 24.0991 16.863 24.0454C16.6477 23.9917 16.4232 23.9865 16.2056 24.03L3 26.67V23.4262L17.1712 16.3425C17.4205 16.2178 17.63 16.0261 17.7764 15.789C17.9228 15.5519 18.0002 15.2787 18 15V6C18 5.20435 18.3161 4.44129 18.8787 3.87868C19.4413 3.31607 20.2044 3 21 3C21.7956 3 22.5587 3.31607 23.1213 3.87868C23.6839 4.44129 24 5.20435 24 6V15C23.9998 15.2787 24.0772 15.5519 24.2236 15.789C24.37 16.0261 24.5795 16.2178 24.8288 16.3425L39 23.4262V26.67Z" fill="#3F76BB"/>
</svg>
