<svg width="48" height="40" viewBox="0 0 48 40" fill="none" xmlns="http://www.w3.org/2000/svg">
<path d="M28.7974 25.7199V13.9072M10.022 2.91992H24.0005C24.0799 5.75005 26.3991 8.01992 29.2484 8.01992C32.0978 8.01992 34.4169 5.75005 34.4963 2.91992H37.9749C42.1853 2.91992 45.5984 6.33309 45.5984 10.5435V29.4573C45.5984 33.6677 42.1853 37.0808 37.9749 37.0808H34.4963C34.4169 34.2507 32.0978 31.9808 29.2484 31.9808C26.3991 31.9808 24.0799 34.2507 24.0005 37.0808H10.022C5.81163 37.0808 2.39846 33.6677 2.39846 29.4573L2.39844 10.5435C2.39844 6.33309 5.81161 2.91992 10.022 2.91992Z" stroke="#3F76BB" stroke-width="4" stroke-linecap="round" stroke-linejoin="round"/>
</svg>
