<svg width="79" height="64" viewBox="0 0 79 64" fill="none" xmlns="http://www.w3.org/2000/svg">
<g clip-path="url(#clip0_102_3363)">
<path d="M4.69949 47.4903C5.15233 47.8852 5.37875 48.4434 5.37875 49.1648C5.37875 49.923 5.1497 50.5127 4.69423 50.9314C4.23876 51.35 3.59636 51.5606 2.76967 51.5606H1.47435V53.4246H0V46.8979H2.76967C3.60163 46.8979 4.24666 47.0954 4.69949 47.4903ZM3.64902 50.0467C3.87017 49.8572 3.98075 49.5781 3.98075 49.2122C3.98075 48.8462 3.87017 48.5803 3.64902 48.396C3.42787 48.2117 3.1093 48.1222 2.69332 48.1222H1.47172V50.3311H2.69332C3.1093 50.3311 3.42787 50.2363 3.64902 50.0467Z" fill="white"/>
<path d="M6.32031 46.9004H11.2883V48.122H7.79203V49.5384H10.9329V50.76H7.79203V52.2054H11.391V53.427H6.32031V46.9004Z" fill="white"/>
<path d="M16.5579 53.4246L15.5232 51.5606H14.0225V53.4246H12.5508V46.8979H15.3836C16.234 46.8979 16.8949 47.0954 17.3609 47.4903C17.8269 47.8852 18.0612 48.4434 18.0612 49.1648C18.0612 49.6676 17.9559 50.0994 17.7479 50.4548C17.5399 50.8129 17.2371 51.0841 16.8396 51.271L18.2297 53.4246H16.5605H16.5579ZM14.0199 50.3311H15.381C15.7917 50.3311 16.1077 50.2363 16.3262 50.0467C16.5473 49.8572 16.6579 49.5781 16.6579 49.2122C16.6579 48.8462 16.5473 48.5803 16.3262 48.396C16.105 48.2117 15.7891 48.1222 15.381 48.1222H14.0199V50.3311Z" fill="white"/>
<path d="M21.0516 51.8342C21.3149 52.1054 21.6677 52.2396 22.11 52.2396C22.5523 52.2396 22.8814 52.1054 23.1367 51.8395C23.3921 51.5736 23.5185 51.2023 23.5185 50.7311V46.9004H24.9902V50.7311C24.9902 51.3024 24.8744 51.7973 24.6401 52.2186C24.4057 52.6372 24.074 52.961 23.637 53.1874C23.2026 53.4139 22.6892 53.5271 22.0994 53.5271C21.5097 53.5271 20.9937 53.4139 20.5514 53.1874C20.1091 52.961 19.7721 52.6372 19.5351 52.2186C19.2982 51.8 19.1797 51.3024 19.1797 50.7311V46.9004H20.6514V50.7311C20.6514 51.1971 20.783 51.5657 21.0463 51.8368L21.0516 51.8342Z" fill="white"/>
<path d="M30.9524 53.4246L30.439 52.1556H27.4192L26.9058 53.4246H25.3867L28.2196 46.8979H29.7387L32.5268 53.4246H30.9524ZM27.9036 50.9735H29.9651L28.9383 48.4381L27.9036 50.9735Z" fill="white"/>
<path d="M37.7157 46.9004H39.1137V53.427H37.771L34.6117 49.233V53.427H33.2031V46.9004H34.5458L37.7157 51.1128V46.9004Z" fill="white"/>
<path d="M45.1015 47.3137C45.6228 47.5902 46.0282 47.9746 46.3178 48.4695C46.6074 48.9645 46.7522 49.5279 46.7522 50.1624C46.7522 50.7969 46.6048 51.3603 46.3099 51.8553C46.0151 52.3502 45.6017 52.7346 45.0752 53.0111C44.546 53.2875 43.9431 53.427 43.2664 53.427H40.5547V46.9004H43.3244C43.9905 46.9004 44.5828 47.0399 45.1041 47.3164L45.1015 47.3137ZM44.3301 51.929C44.6197 51.7579 44.8435 51.5209 45.0067 51.2155C45.1673 50.9101 45.2489 50.5626 45.2489 50.1729C45.2489 49.7833 45.162 49.4305 44.9935 49.1198C44.8224 48.8092 44.5881 48.5696 44.2932 48.3984C43.9984 48.2273 43.664 48.1431 43.2901 48.1431H42.0211V52.1896H43.3533C43.714 52.1896 44.0378 52.1054 44.3274 51.9342L44.3301 51.929Z" fill="white"/>
<path d="M47.7227 46.9004H52.6907V48.122H49.1944V49.5384H52.3353V50.76H49.1944V52.2054H52.7934V53.427H47.7227V46.9004Z" fill="white"/>
<path d="M57.1763 48.2273C56.7998 48.1062 56.4786 48.0457 56.2101 48.0457C55.9415 48.0457 55.7546 48.0931 55.6045 48.1852C55.4545 48.2773 55.3807 48.4142 55.3807 48.5959C55.3807 48.825 55.4887 49.0014 55.7019 49.1225C55.9152 49.2436 56.2469 49.3699 56.6945 49.4989C57.1421 49.6306 57.5107 49.7596 57.8003 49.8912C58.0899 50.0229 58.3373 50.2177 58.5401 50.4783C58.7428 50.739 58.8481 51.0839 58.8481 51.513C58.8481 51.9422 58.7375 52.2871 58.5164 52.5898C58.2952 52.89 57.9925 53.119 57.6081 53.2743C57.2237 53.4297 56.784 53.506 56.2943 53.506C55.7651 53.506 55.2465 53.4139 54.7383 53.227C54.2276 53.04 53.7879 52.7846 53.4141 52.4634L54.0012 51.2603C54.3303 51.5578 54.7094 51.7974 55.1385 51.979C55.5677 52.1607 55.9599 52.2502 56.3127 52.2502C56.6181 52.2502 56.8551 52.1949 57.0262 52.0817C57.1974 51.9685 57.2816 51.8079 57.2816 51.5973C57.2816 51.4288 57.2237 51.2919 57.1078 51.1813C56.992 51.0707 56.8472 50.9838 56.6708 50.9154C56.4944 50.8469 56.2496 50.7706 55.9389 50.6837C55.4913 50.56 55.1254 50.4362 54.8437 50.3098C54.5593 50.1861 54.3171 49.9965 54.1117 49.7412C53.9064 49.4858 53.8037 49.1488 53.8037 48.7249C53.8037 48.3326 53.909 47.9904 54.1196 47.6955C54.3303 47.4006 54.6251 47.1742 55.0043 47.0162C55.3834 46.8583 55.8257 46.7793 56.3285 46.7793C56.7761 46.7793 57.2184 46.8451 57.6528 46.9741C58.0872 47.1058 58.4742 47.2795 58.8086 47.4954L58.2399 48.717C57.9029 48.5117 57.5475 48.3484 57.1737 48.2273H57.1763Z" fill="white"/>
<path d="M59.2422 46.9004H64.6947V48.1483H62.699V53.4244H61.2273V48.1483H59.2422V46.9004Z" fill="white"/>
<path d="M69.9558 47.2347C70.4903 47.5269 70.9115 47.9298 71.2196 48.4431C71.5276 48.9565 71.6803 49.5252 71.6803 50.1544C71.6803 50.7837 71.5276 51.355 71.2196 51.871C70.9115 52.387 70.4903 52.7925 69.9558 53.0873C69.4214 53.3822 68.829 53.5297 68.1761 53.5297C67.5232 53.5297 66.9308 53.3822 66.3963 53.0873C65.8619 52.7925 65.4406 52.387 65.1326 51.8763C64.8246 51.3629 64.6719 50.7916 64.6719 50.1571C64.6719 49.5226 64.8246 48.9592 65.1326 48.4458C65.4406 47.9324 65.8593 47.5296 66.3911 47.2373C66.9229 46.9451 67.5179 46.8003 68.1761 46.8003C68.8343 46.8003 69.4214 46.9451 69.9558 47.2373V47.2347ZM67.1862 48.3589C66.8755 48.5432 66.6307 48.7933 66.449 49.1092C66.2673 49.4252 66.1778 49.7753 66.1778 50.1544C66.1778 50.5336 66.27 50.8916 66.4516 51.2076C66.6333 51.5235 66.8808 51.7762 67.1888 51.9632C67.4968 52.1501 67.8312 52.2422 68.1919 52.2422C68.5526 52.2422 68.8843 52.1501 69.1844 51.9684C69.4846 51.7841 69.7242 51.534 69.9032 51.2128C70.0796 50.8943 70.1691 50.5415 70.1691 50.1544C70.1691 49.7674 70.0796 49.4278 69.9032 49.1092C69.7268 48.7907 69.4872 48.5432 69.1844 48.3589C68.8817 48.1746 68.5526 48.0851 68.1919 48.0851C67.8312 48.0851 67.4968 48.1772 67.1862 48.3589Z" fill="white"/>
<path d="M77.3453 47.4903C77.7981 47.8852 78.0245 48.4434 78.0245 49.1648C78.0245 49.923 77.7955 50.5127 77.34 50.9314C76.8846 51.35 76.2422 51.5606 75.4155 51.5606H74.1202V53.4246H72.6484V46.8979H75.4181C76.2501 46.8979 76.8951 47.0954 77.3479 47.4903H77.3453ZM76.2975 50.0467C76.5186 49.8572 76.6292 49.5781 76.6292 49.2122C76.6292 48.8462 76.5186 48.5803 76.2975 48.396C76.0763 48.2117 75.7577 48.1222 75.3418 48.1222H74.1202V50.3311H75.3418C75.7577 50.3311 76.0763 50.2363 76.2975 50.0467Z" fill="white"/>
<path d="M6.49219 57.6421H11.4128V58.4346H9.38034V63.9397H8.51679V58.4346H6.49219V57.6421Z" fill="white"/>
<path d="M16.4673 63.9373L15.2168 61.9601C15.072 61.9733 14.9561 61.9786 14.8666 61.9786H13.2659V63.94H12.4023V57.645H14.8666C15.6643 57.645 16.2804 57.8293 16.7148 58.1979C17.1492 58.5665 17.3677 59.0904 17.3677 59.767C17.3677 60.2778 17.2493 60.7043 17.0123 61.0518C16.7754 61.3994 16.4357 61.6521 15.9908 61.8074L17.4573 63.94H16.4673V63.9373ZM14.864 61.194C15.4037 61.194 15.817 61.0755 16.104 60.8386C16.391 60.6016 16.5358 60.2515 16.5358 59.7907C16.5358 59.33 16.391 59.0009 16.104 58.7692C15.817 58.5375 15.4037 58.4217 14.864 58.4217H13.2633V61.1914H14.864V61.194Z" fill="white"/>
<path d="M23.5824 63.937L22.9163 62.4074H19.599L18.9435 63.937H18.0352L20.8312 57.6421H21.7316L24.5197 63.937H23.585H23.5824ZM19.9386 61.6255H22.582L21.2498 58.5688L19.936 61.6255H19.9386Z" fill="white"/>
<path d="M24.1562 57.6421H25.083L27.1602 62.9761L29.2375 57.6421H30.1458L27.592 63.937H26.6916L24.1562 57.6421Z" fill="white"/>
<path d="M31.0898 57.6421H35.4602V58.424H31.9534V60.367H35.0917V61.1489H31.9534V63.1551H35.5682V63.937H31.0898V57.6421Z" fill="white"/>
<path d="M36.9609 57.6421H37.8245V63.1551H40.5757V63.937H36.9609V57.6421Z" fill="white"/>
<path d="M44.0312 57.6421H45.0554L47.3564 62.0678L49.6417 57.6421H50.6764V63.937H49.8681L49.8602 58.9111L47.6197 63.2736H47.0879L44.8316 58.9111V63.937H44.0312V57.6421Z" fill="white"/>
<path d="M56.8965 58.0108C57.402 58.2925 57.8022 58.6769 58.0971 59.1666C58.3919 59.6563 58.5368 60.1934 58.5368 60.7805C58.5368 61.3676 58.3893 61.9099 58.0971 62.4049C57.8022 62.8998 57.402 63.2895 56.8965 63.5738C56.391 63.8582 55.8329 64.0003 55.2274 64.0003C54.6218 64.0003 54.0663 63.8582 53.5582 63.5738C53.0527 63.2895 52.6525 62.8998 52.3576 62.4049C52.0628 61.9099 51.918 61.3702 51.918 60.7805C51.918 60.1907 52.0654 59.6536 52.3576 59.1666C52.6525 58.6769 53.0501 58.2925 53.5529 58.0108C54.0558 57.7291 54.6139 57.5869 55.2247 57.5869C55.8355 57.5869 56.3858 57.7291 56.8939 58.0108H56.8965ZM54.0189 58.6848C53.6451 58.9007 53.3449 59.1929 53.1238 59.5615C52.9026 59.9301 52.792 60.3355 52.792 60.7805C52.792 61.2254 52.9026 61.6308 53.1238 62.0047C53.3449 62.3759 53.6424 62.6708 54.0189 62.8893C54.3928 63.1078 54.8009 63.2184 55.2379 63.2184C55.6749 63.2184 56.0777 63.1078 56.4463 62.8893C56.8149 62.6708 57.1098 62.3759 57.3283 62.0047C57.5468 61.6335 57.6574 61.2254 57.6574 60.7805C57.6574 60.3355 57.5468 59.9301 57.3283 59.5615C57.1098 59.1929 56.8149 58.9007 56.4463 58.6848C56.0777 58.4689 55.6749 58.3609 55.2379 58.3609C54.8009 58.3609 54.3928 58.4689 54.0189 58.6848Z" fill="white"/>
<path d="M63.8462 63.9373L62.5957 61.9601C62.4509 61.9733 62.335 61.9786 62.2455 61.9786H60.6448V63.94H59.7812V57.645H62.2455C63.0433 57.645 63.6593 57.8293 64.0937 58.1979C64.5281 58.5665 64.7467 59.0904 64.7467 59.767C64.7467 60.2778 64.6282 60.7043 64.3912 61.0518C64.1543 61.3994 63.8147 61.6521 63.3697 61.8074L64.8362 63.94H63.8462V63.9373ZM62.2429 61.194C62.7826 61.194 63.196 61.0755 63.4829 60.8386C63.7699 60.6016 63.9147 60.2515 63.9147 59.7907C63.9147 59.33 63.7699 59.0009 63.4829 58.7692C63.196 58.5375 62.78 58.4217 62.2429 58.4217H60.6422V61.1914H62.2429V61.194Z" fill="white"/>
<path d="M66.2812 57.6421H70.6516V58.424H67.1448V60.367H70.2831V61.1489H67.1448V63.1551H70.7596V63.937H66.2812V57.6421Z" fill="white"/>
<path d="M54.8776 35.4263L54.8723 35.421L52.6661 33.2148L52.6397 33.1884L38.8151 19.3638L24.9957 33.1832L24.9641 33.2148L22.7578 35.421L22.8078 35.4763L22.921 35.608L22.9579 35.6474L23.1317 35.837C23.3318 36.0529 23.5345 36.2661 23.7425 36.4741C27.9049 40.6339 33.36 42.7191 38.8177 42.7191C42.9722 42.7191 47.1294 41.5133 50.7152 39.0964L50.8653 38.9963L50.9864 38.9147L51.0048 38.9016C52.437 37.9064 53.7376 36.74 54.8855 35.4316H54.8829L54.8776 35.4263ZM38.823 39.5492C34.4105 39.5492 30.3613 37.9775 27.2151 35.3631L38.8177 23.7605L50.4282 35.371C47.2794 37.9801 43.2355 39.5492 38.8256 39.5492H38.823Z" fill="white"/>
<path d="M38.8232 0.00244195H38.8153C27.0205 -0.00019082 17.4609 9.56203 17.4609 21.3542C17.4609 23.2366 17.7032 25.0611 18.1613 26.7988L18.1771 26.783V26.7882L20.8125 24.1555V24.1502L26.8599 18.1027L29.0636 20.3064L19.5487 29.8212H19.5514L19.3197 30.0555C19.7541 31.0349 20.2675 31.9932 20.8598 32.9121L23.1214 30.6505L38.8101 14.9618L54.4987 30.6505L56.7603 32.9121C57.3527 31.9932 57.8661 31.0349 58.3005 30.0555L57.9055 29.6606H57.9082L48.5566 20.3064L50.7602 18.1027L56.7971 24.1397L56.8103 24.1528V24.1581L59.4405 26.7909V26.783L59.4668 26.8067C59.9249 25.069 60.1697 23.2419 60.1697 21.3568C60.1776 9.56203 50.6154 0.00244195 38.8232 0.00244195ZM56.9604 19.9694L52.6874 15.6964L52.7243 15.6622L50.7655 13.7034L46.3608 18.108L38.8153 10.5625L31.2698 18.108L26.8652 13.7034L20.6861 19.8825C21.4391 10.5256 29.2715 3.16703 38.8206 3.16703C48.3697 3.16703 56.2522 10.573 56.963 19.972H56.9604V19.9694Z" fill="white"/>
</g>
<defs>
<clipPath id="clip0_102_3363">
<rect width="78.0274" height="64" fill="white"/>
</clipPath>
</defs>
</svg>
