<svg width="20" height="17" viewBox="0 0 20 17" fill="none" xmlns="http://www.w3.org/2000/svg">
<path d="M11.043 15.7637C10.4437 15.918 9.81541 16 9.16797 16C5.02583 16 1.66797 12.6421 1.66797 8.5C1.66797 4.35786 5.02583 1 9.16797 1C12.9926 1 16.1486 3.86283 16.6099 7.5625M2.60547 11.3125H4.79297C5.65592 11.3125 6.35547 10.6129 6.35547 9.75V7.71875C6.35547 6.8558 7.05502 6.15625 7.91797 6.15625H9.48047C10.3434 6.15625 11.043 5.4567 11.043 4.59375V1.9375M15.7676 13.2048L17.9146 12.4625C18.3171 12.3233 18.3305 11.7591 17.9352 11.601L12.6122 9.47145C12.2419 9.32331 11.8714 9.6846 12.0103 10.0585L14.038 15.5181C14.1862 15.9171 14.7502 15.9179 14.8996 15.5194L15.7676 13.2048Z" stroke="#0F1B2C" stroke-width="1.66667" stroke-linecap="round" stroke-linejoin="round"/>
</svg>
