<svg width="30" height="30" viewBox="0 0 30 30" fill="none" xmlns="http://www.w3.org/2000/svg">
<rect width="29.8658" height="29.8658" rx="14.9329" fill="white"/>
<path fill-rule="evenodd" clip-rule="evenodd" d="M18.5187 10.1543H11.3509C10.692 10.1543 10.1562 10.6901 10.1562 11.3489V18.5167C10.1562 19.1756 10.692 19.7113 11.3509 19.7113H14.9348V16.4261H13.7401V14.9328H14.9348V13.7382C14.9348 13.2629 15.1236 12.8071 15.4596 12.4711C15.7957 12.135 16.2515 11.9462 16.7267 11.9462H17.9214V13.4395H17.324C16.9943 13.4395 16.7267 13.4085 16.7267 13.7382V14.9328H18.22L17.6227 16.4261H16.7267V19.7113H18.5187C19.1775 19.7113 19.7133 19.1756 19.7133 18.5167V11.3489C19.7133 10.6901 19.1775 10.1543 18.5187 10.1543Z" fill="#3F76BB"/>
</svg>
