<svg width="30" height="30" viewBox="0 0 30 30" fill="none" xmlns="http://www.w3.org/2000/svg">
<rect x="0.0351562" width="29.8658" height="29.8658" rx="14.9329" fill="white"/>
<path d="M14.9699 11.0179C16.2365 11.0179 16.4092 11.0179 16.9274 11.0179C17.388 11.0179 17.6183 11.133 17.791 11.1906C18.0213 11.3057 18.194 11.3633 18.3667 11.536C18.5394 11.7088 18.6546 11.8815 18.7121 12.1118C18.7697 12.2845 18.8273 12.5148 18.8849 12.9754C18.8849 13.4935 18.8849 13.6087 18.8849 14.9328C18.8849 16.257 18.8849 16.3721 18.8849 16.8903C18.8849 17.3509 18.7697 17.5812 18.7121 17.7539C18.597 17.9842 18.5394 18.1569 18.3667 18.3296C18.194 18.5023 18.0213 18.6175 17.791 18.675C17.6183 18.7326 17.388 18.7902 16.9274 18.8478C16.4092 18.8478 16.2941 18.8478 14.9699 18.8478C13.6458 18.8478 13.5306 18.8478 13.0125 18.8478C12.5519 18.8478 12.3216 18.7326 12.1489 18.675C11.9186 18.5599 11.7459 18.5023 11.5731 18.3296C11.4004 18.1569 11.2853 17.9842 11.2277 17.7539C11.1701 17.5812 11.1126 17.3509 11.055 16.8903C11.055 16.3721 11.055 16.257 11.055 14.9328C11.055 13.6087 11.055 13.4935 11.055 12.9754C11.055 12.5148 11.1701 12.2845 11.2277 12.1118C11.3429 11.8815 11.4004 11.7088 11.5731 11.536C11.7459 11.3633 11.9186 11.2482 12.1489 11.1906C12.3216 11.133 12.5519 11.0755 13.0125 11.0179C13.5306 11.0179 13.7033 11.0179 14.9699 11.0179ZM14.9699 10.1543C13.6458 10.1543 13.5306 10.1543 13.0125 10.1543C12.4943 10.1543 12.1489 10.2694 11.861 10.3846C11.5731 10.4997 11.2853 10.6725 10.9974 10.9603C10.7096 11.2482 10.5944 11.4785 10.4217 11.8239C10.3066 12.1118 10.249 12.4572 10.1914 12.9754C10.1914 13.4935 10.1914 13.6662 10.1914 14.9328C10.1914 16.257 10.1914 16.3721 10.1914 16.8903C10.1914 17.4084 10.3066 17.7539 10.4217 18.0417C10.5368 18.3296 10.7096 18.6175 10.9974 18.9053C11.2853 19.1932 11.5156 19.3083 11.861 19.4811C12.1489 19.5962 12.4943 19.6538 13.0125 19.7113C13.5306 19.7113 13.7033 19.7113 14.9699 19.7113C16.2365 19.7113 16.4092 19.7113 16.9274 19.7113C17.4456 19.7113 17.791 19.5962 18.0788 19.4811C18.3667 19.3659 18.6546 19.1932 18.9424 18.9053C19.2303 18.6175 19.3454 18.3872 19.5182 18.0417C19.6333 17.7539 19.6909 17.4084 19.7485 16.8903C19.7485 16.3721 19.7485 16.1994 19.7485 14.9328C19.7485 13.6662 19.7485 13.4935 19.7485 12.9754C19.7485 12.4572 19.6333 12.1118 19.5182 11.8239C19.403 11.536 19.2303 11.2482 18.9424 10.9603C18.6546 10.6725 18.4243 10.5573 18.0788 10.3846C17.791 10.2694 17.4456 10.2119 16.9274 10.1543C16.4092 10.1543 16.2941 10.1543 14.9699 10.1543Z" fill="#3F76BB"/>
<path d="M14.9699 12.4572C13.5882 12.4572 12.4943 13.5511 12.4943 14.9328C12.4943 16.3146 13.5882 17.4084 14.9699 17.4084C16.3517 17.4084 17.4456 16.3146 17.4456 14.9328C17.4456 13.5511 16.3517 12.4572 14.9699 12.4572ZM14.9699 16.5449C14.1063 16.5449 13.3579 15.854 13.3579 14.9328C13.3579 14.0692 14.0488 13.3208 14.9699 13.3208C15.8335 13.3208 16.582 14.0117 16.582 14.9328C16.582 15.7964 15.8335 16.5449 14.9699 16.5449Z" fill="#3F76BB"/>
<path d="M17.5031 12.9754C17.8211 12.9754 18.0788 12.7176 18.0788 12.3996C18.0788 12.0817 17.8211 11.8239 17.5031 11.8239C17.1852 11.8239 16.9274 12.0817 16.9274 12.3996C16.9274 12.7176 17.1852 12.9754 17.5031 12.9754Z" fill="#3F76BB"/>
</svg>
