<svg width="30" height="30" viewBox="0 0 30 30" fill="none" xmlns="http://www.w3.org/2000/svg">
<rect x="0.101562" width="29.8658" height="29.8658" rx="14.9329" fill="white"/>
<path fill-rule="evenodd" clip-rule="evenodd" d="M11.3013 10.5723C10.889 10.5723 10.5547 10.9065 10.5547 11.3189V18.7854C10.5547 19.1977 10.889 19.532 11.3013 19.532H18.7678C19.1801 19.532 19.5144 19.1977 19.5144 18.7854V11.3189C19.5144 10.9065 19.1801 10.5723 18.7678 10.5723H11.3013ZM13.3027 12.5647C13.3055 13.0407 12.9492 13.3339 12.5264 13.3318C12.1282 13.3297 11.781 13.0127 11.7831 12.5654C11.7852 12.1447 12.1177 11.8066 12.5495 11.8164C12.9877 11.8262 13.3055 12.1475 13.3027 12.5647ZM15.1738 13.938H13.9194H13.9187V18.1988H15.2445V18.0994C15.2445 17.9103 15.2443 17.7211 15.2442 17.5319C15.2438 17.0273 15.2433 16.5221 15.2459 16.0176C15.2466 15.8951 15.2522 15.7678 15.2837 15.6508C15.402 15.2141 15.7947 14.932 16.2329 15.0013C16.5143 15.0454 16.7004 15.2085 16.7788 15.4738C16.8271 15.6396 16.8488 15.8181 16.8509 15.9911C16.8566 16.5125 16.8558 17.034 16.855 17.5555C16.8547 17.7396 16.8544 17.9237 16.8544 18.1078V18.1981H18.1844V18.0959C18.1844 17.8709 18.1843 17.646 18.1841 17.421C18.1839 16.8588 18.1836 16.2966 18.1851 15.7342C18.1858 15.4801 18.1585 15.2295 18.0962 14.9838C18.0031 14.6184 17.8106 14.316 17.4977 14.0976C17.2758 13.9422 17.0322 13.8421 16.7599 13.8309C16.7289 13.8296 16.6977 13.8279 16.6663 13.8262C16.527 13.8187 16.3855 13.8111 16.2524 13.8379C15.8716 13.9142 15.5371 14.0885 15.2844 14.3958C15.255 14.431 15.2263 14.4668 15.1834 14.5202L15.1738 14.5323V13.938ZM11.8895 18.2002H13.209V13.9408H11.8895V18.2002Z" fill="#3F76BB"/>
</svg>
