<svg width="30" height="30" viewBox="0 0 30 30" fill="none" xmlns="http://www.w3.org/2000/svg">
<rect x="0.132812" width="29.8658" height="29.8658" rx="14.9329" fill="white"/>
<g clip-path="url(#clip0_3125_3187)">
<path d="M17.8612 11.5527H12.2739C11.1777 11.5527 10.2891 12.4414 10.2891 13.5376V16.3307C10.2891 17.4269 11.1777 18.3155 12.2739 18.3155H17.8612C18.9575 18.3155 19.8461 17.4269 19.8461 16.3307V13.5376C19.8461 12.4414 18.9575 11.5527 17.8612 11.5527ZM16.5189 15.07L13.9055 16.3164C13.8359 16.3497 13.7554 16.2989 13.7554 16.2217V13.651C13.7554 13.5728 13.838 13.5221 13.9078 13.5574L16.5211 14.8818C16.5988 14.9211 16.5975 15.0325 16.5189 15.07Z" fill="#3F76BB"/>
</g>
<defs>
<clipPath id="clip0_3125_3187">
<rect width="9.55705" height="9.55705" fill="white" transform="translate(10.2891 10.1543)"/>
</clipPath>
</defs>
</svg>
